<?xml version="1.0" standalone="no"?>
<!DOCTYPE svg PUBLIC "-//W3C//DTD SVG 20010904//EN"
 "http://www.w3.org/TR/2001/REC-SVG-20010904/DTD/svg10.dtd">
<svg version="1.0" xmlns="http://www.w3.org/2000/svg"
 width="1920.000000pt" height="1080.000000pt" viewBox="0 0 1920.000000 1080.000000"
 preserveAspectRatio="xMidYMid meet">

<g transform="translate(0.000000,1080.000000) scale(0.100000,-0.100000)"
fill="#000000" stroke="none">
<path d="M12638 8759 c-5 -3 -21 -4 -35 -1 -20 4 -24 2 -18 -9 7 -11 6 -12 -6
-3 -14 11 -34 11 -184 -1 -88 -7 -271 -17 -322 -18 -18 -1 -33 -5 -33 -9 0 -4
-8 -7 -17 -7 -10 0 -42 0 -71 -1 -29 -1 -56 1 -59 4 -3 3 -14 1 -24 -5 -11 -5
-64 -11 -120 -13 -56 -2 -104 -7 -107 -13 -4 -5 -33 -8 -64 -7 -32 0 -55 -3
-52 -7 3 -5 -12 -8 -33 -8 -21 0 -72 -2 -113 -6 -41 -3 -102 -7 -135 -9 -33
-3 -69 -7 -80 -9 -11 -2 -26 0 -32 5 -9 7 -14 6 -18 -4 -6 -14 -7 -14 -427
-21 -71 -1 -128 -6 -128 -10 0 -5 -4 -6 -10 -2 -5 3 -25 6 -45 7 -19 1 -35 4
-35 7 0 3 -64 7 -143 8 -307 5 -407 8 -407 14 0 3 -82 6 -181 7 -100 1 -184 4
-187 7 -3 3 -12 -1 -20 -8 -10 -7 -13 -7 -9 -1 4 8 -10 12 -44 13 -28 0 -55 4
-61 7 -6 4 -14 0 -19 -7 -5 -8 -9 -9 -9 -4 0 6 -55 10 -147 9 -82 -1 -156 3
-167 8 -13 7 -16 7 -12 -1 4 -6 3 -11 -3 -11 -5 0 -12 3 -14 8 -3 4 -129 7
-281 7 -152 0 -276 4 -276 8 0 5 -5 5 -12 1 -6 -4 -197 -9 -422 -10 -226 -1
-415 -3 -421 -4 -5 -1 -12 -1 -15 0 -14 7 -97 10 -437 13 -256 2 -373 0 -373
-8 0 -5 -5 -2 -11 8 -7 12 -15 15 -27 8 -9 -4 -154 -8 -322 -7 -168 1 -317 -1
-331 -5 -15 -4 -32 -3 -39 1 -7 4 -26 4 -42 0 -15 -5 -26 -5 -23 -1 2 5 -6 9
-20 9 -14 0 -23 -3 -21 -7 2 -3 -100 -7 -227 -8 -128 -2 -236 -3 -242 -3 -5
-1 -55 0 -110 1 -55 1 -172 -2 -260 -6 -152 -7 -219 -9 -275 -6 -70 4 -110 -1
-103 -12 4 -7 0 -6 -10 2 -14 11 -17 11 -17 0 0 -11 -2 -11 -10 1 -5 8 -10 10
-10 4 0 -13 -38 -23 -58 -16 -7 2 -9 9 -6 14 4 7 2 8 -5 4 -17 -11 -220 -21
-406 -20 -89 1 -151 -2 -140 -7 16 -6 17 -8 3 -8 -9 -1 -20 4 -23 9 -3 6 -11
10 -16 10 -6 0 -7 -5 -3 -12 5 -8 2 -9 -9 -5 -10 4 -24 10 -32 13 -8 3 -15 2
-15 -4 0 -5 -35 -10 -82 -10 -46 0 -114 -1 -153 -2 -61 -1 -231 -2 -500 -1
-44 0 -82 1 -85 1 -3 1 -23 1 -45 0 -22 -1 -66 -3 -97 -4 -32 0 -58 -5 -58
-10 0 -6 -5 -5 -12 2 -13 13 -70 16 -82 5 -9 -10 -37 -13 -31 -4 2 4 -69 8
-158 9 -89 1 -267 3 -394 5 -128 1 -233 5 -233 9 0 4 -7 4 -17 1 -12 -5 -14
-3 -8 8 7 11 6 12 -6 4 -8 -6 -38 -10 -66 -9 -29 0 -53 -3 -53 -8 0 -4 -30 -5
-67 -2 -95 10 -164 10 -192 0 -18 -6 -22 -5 -15 5 6 12 5 12 -8 1 -9 -8 -41
-15 -70 -17 -29 -1 -53 -4 -53 -5 0 -1 -7 -3 -15 -5 -25 -6 -123 -26 -150 -31
-14 -2 -43 -11 -65 -18 -93 -32 -146 -46 -155 -41 -5 3 -11 1 -15 -5 -3 -5
-12 -10 -20 -10 -8 0 -26 -5 -42 -12 -15 -6 -30 -12 -33 -12 -3 -1 -9 -4 -15
-7 -16 -10 -89 -33 -97 -31 -4 1 -10 -8 -13 -19 -4 -12 -12 -18 -21 -15 -8 3
-14 -1 -14 -10 0 -8 -4 -13 -9 -9 -5 3 -12 1 -16 -5 -4 -6 -11 -8 -16 -5 -5 4
-9 1 -9 -4 0 -6 -5 -10 -11 -9 -6 2 -14 -3 -17 -11 -3 -9 0 -11 8 -6 9 5 11 4
6 -4 -4 -6 -11 -9 -16 -6 -5 3 -20 1 -32 -6 -26 -13 -92 -69 -83 -69 4 0 -10
-15 -29 -34 -20 -18 -36 -37 -36 -41 0 -4 -10 -17 -22 -29 -44 -43 -76 -84
-70 -91 3 -3 -1 -3 -11 1 -10 3 -17 1 -17 -6 0 -6 -6 -8 -12 -4 -10 5 -10 4
-1 -6 8 -9 5 -21 -14 -48 -13 -20 -30 -40 -36 -44 -7 -4 -8 -8 -3 -8 6 0 1 -7
-10 -16 -10 -8 -12 -13 -4 -9 13 5 13 4 0 -7 -15 -12 -42 -69 -42 -85 0 -4 -7
-17 -16 -27 -13 -15 -13 -17 -2 -11 13 8 13 7 0 -9 -8 -10 -15 -23 -16 -30 -1
-6 -11 -31 -22 -56 -18 -42 -34 -82 -33 -87 0 -2 -6 -21 -14 -43 -8 -22 -12
-40 -10 -40 2 0 -2 -15 -10 -33 -15 -36 -29 -110 -27 -144 1 -13 -3 -23 -8
-23 -6 0 -9 -3 -9 -7 1 -5 1 -10 0 -13 -1 -3 -4 -18 -6 -35 -4 -34 -11 -68
-21 -97 -13 -41 -24 -398 -27 -888 -2 -201 -6 -371 -10 -377 -4 -6 -1 -14 5
-16 10 -4 10 -8 -1 -15 -9 -7 -10 -12 -2 -16 6 -4 11 -14 11 -22 0 -8 -3 -13
-7 -11 -5 3 -7 -128 -5 -291 4 -423 12 -1865 16 -2833 2 -454 6 -831 10 -837
4 -7 2 -20 -3 -30 -6 -11 -6 -23 -1 -28 5 -5 11 -49 14 -99 3 -49 6 -97 7
-105 1 -13 33 -170 46 -224 2 -11 7 -40 10 -63 3 -24 10 -43 14 -43 5 0 8 -3
7 -7 -1 -5 4 -28 11 -53 7 -25 14 -49 16 -55 2 -9 18 -52 32 -85 3 -8 7 -18 7
-21 1 -3 12 -30 25 -60 33 -76 39 -90 51 -121 5 -16 14 -28 20 -28 5 0 10 -5
10 -10 0 -6 11 -23 25 -38 14 -15 25 -30 25 -35 0 -8 11 -23 42 -57 9 -10 14
-20 12 -23 -2 -2 9 -16 26 -30 16 -15 30 -32 30 -37 0 -6 7 -10 15 -10 8 0 15
-3 15 -7 0 -13 62 -76 105 -108 22 -16 50 -40 63 -53 12 -13 27 -20 32 -17 6
4 10 3 9 -2 -3 -20 2 -27 11 -13 8 13 10 12 10 -3 0 -10 4 -16 9 -12 6 3 13 0
18 -7 9 -15 73 -52 73 -43 0 3 10 0 22 -7 13 -7 25 -13 28 -13 3 -1 23 -10 45
-20 22 -10 42 -19 45 -20 3 -1 18 -7 33 -13 16 -7 37 -12 47 -12 10 0 21 -4
24 -9 5 -7 78 -27 166 -46 3 0 29 -7 58 -14 29 -7 56 -11 59 -7 3 3 14 1 25
-5 10 -5 33 -12 51 -15 97 -13 115 -16 152 -20 74 -9 616 -11 621 -2 3 5 11 5
17 0 16 -13 85 -14 92 -2 3 6 12 10 18 10 8 0 8 -3 -1 -9 -12 -7 80 -8 98 -1
3 1 10 1 15 -1 24 -8 131 -3 137 6 5 6 8 5 8 -2 0 -7 12 -13 28 -13 15 0 34 6
41 13 9 8 12 8 7 0 -7 -13 70 -13 92 0 6 5 12 4 12 -2 0 -12 239 -9 259 3 9 6
12 5 8 -2 -5 -7 10 -10 43 -9 27 1 50 5 50 9 0 3 13 3 30 -2 18 -5 32 -5 36 1
4 6 11 6 19 -1 14 -12 64 -8 86 6 7 4 10 3 6 -3 -4 -7 13 -10 48 -10 30 1 55
5 55 9 0 4 5 8 11 8 5 0 8 -4 4 -10 -7 -11 74 -8 94 4 8 6 12 5 8 0 -8 -14
226 -14 236 0 5 8 9 8 15 0 8 -13 196 -12 226 1 12 5 17 5 13 -1 -3 -6 32 -10
93 -10 67 0 97 3 93 10 -4 6 1 5 10 -3 13 -11 20 -11 32 -1 8 7 20 8 27 4 7
-5 168 -9 358 -10 190 -1 437 -5 550 -9 113 -3 270 -8 350 -9 80 -2 145 -4
145 -5 0 -1 56 -4 125 -6 315 -10 391 -13 470 -20 47 -4 145 -8 217 -9 73 0
133 -3 133 -6 0 -3 60 -6 133 -8 72 -1 193 -5 267 -7 282 -9 543 -14 1090 -20
1166 -14 1332 -16 1435 -11 28 1 64 -1 82 -5 18 -4 34 -5 36 -2 8 8 317 8 317
0 0 -5 4 -6 9 -2 17 10 141 13 141 3 0 -5 6 -6 13 -1 13 8 95 10 652 18 198 3
430 7 515 10 85 3 221 6 301 8 80 2 150 7 156 10 7 4 14 3 18 -3 4 -6 10 -8
13 -6 10 6 198 18 342 21 179 5 811 19 852 19 20 0 35 2 33 5 -2 4 83 7 188 9
438 5 573 9 582 13 6 2 63 4 127 4 65 0 118 2 118 5 0 3 80 6 178 7 177 1 296
8 313 19 5 3 9 1 9 -3 0 -7 129 -8 150 -2 3 1 8 1 11 1 28 -4 191 -1 504 9 6
0 20 -2 33 -5 12 -2 22 0 22 5 0 6 6 7 16 1 9 -5 35 -6 57 -1 23 4 46 5 51 2
5 -3 74 -7 155 -9 80 -2 191 -6 246 -9 55 -3 161 -6 237 -8 75 -1 134 -5 132
-8 -2 -4 54 -7 124 -7 70 0 160 -3 201 -6 206 -18 763 -26 921 -15 109 9 170
18 340 56 41 9 82 17 90 18 8 1 26 7 39 14 19 11 22 11 15 -1 -6 -10 -5 -11 7
-1 8 6 32 14 54 16 22 3 58 13 80 22 22 10 45 19 50 20 22 5 208 97 243 121
77 51 89 60 153 124 36 36 74 72 85 81 26 21 68 70 90 105 10 16 29 40 41 54
21 23 24 29 22 46 0 4 3 10 8 13 31 23 98 154 110 216 2 10 8 22 14 26 6 3 10
9 10 13 -2 11 2 32 13 68 4 15 14 29 22 32 8 3 11 12 8 21 -4 8 -1 21 5 29 6
7 8 16 4 19 -3 4 -1 7 6 7 7 0 10 4 6 9 -3 5 -1 12 4 16 5 3 10 13 10 23 0 9
1 24 4 32 2 8 7 33 11 55 4 22 12 54 17 70 5 17 11 44 13 60 12 91 26 218 31
275 2 36 7 92 11 125 12 111 4 1365 -11 1715 -10 241 -14 307 -20 330 -3 14
-7 76 -9 137 -3 62 -7 116 -9 120 -7 11 -19 143 -23 248 -2 50 -6 119 -9 155
-2 36 -6 111 -7 167 -2 57 -5 103 -8 103 -3 0 -6 57 -8 128 -1 70 -5 186 -8
257 -8 218 -12 515 -5 515 3 0 6 55 6 122 0 102 6 199 19 298 1 9 6 22 11 29
5 10 4 12 -3 7 -15 -9 -15 -9 -1 34 10 32 16 112 24 330 1 47 3 85 5 85 16 0
29 471 15 545 -3 20 -8 58 -10 85 -2 28 -4 50 -5 50 -1 0 -4 23 -5 50 -2 28
-4 51 -5 53 -8 8 -23 96 -25 147 -1 27 -5 57 -8 65 -3 8 -18 53 -33 100 -15
47 -36 100 -46 118 -10 17 -15 32 -13 32 3 0 -2 15 -12 33 -9 17 -16 35 -15
40 1 4 -2 7 -7 7 -5 0 -12 14 -16 31 -4 17 -13 33 -21 36 -8 3 -12 9 -9 13 3
5 -3 15 -13 22 -10 7 -26 29 -35 49 -28 60 -231 259 -327 321 -107 69 -327
181 -340 173 -6 -3 -10 0 -10 7 0 10 -2 10 -9 -1 -6 -9 -11 -10 -15 -2 -4 6
-16 11 -27 11 -10 0 -19 4 -19 8 0 4 -12 7 -27 6 -16 -1 -42 4 -59 11 -18 7
-53 16 -80 20 -26 3 -52 9 -57 12 -6 3 -22 8 -36 10 -95 13 -191 24 -221 25
-19 0 -39 4 -45 8 -11 9 -389 6 -820 -5 -148 -4 -313 -8 -365 -9 -52 -1 -100
-5 -106 -9 -6 -3 -14 -3 -18 0 -8 8 -176 11 -176 3 0 -7 -1167 -3 -1395 5 -99
3 -317 8 -485 10 -307 5 -543 12 -612 18 -21 2 -38 -1 -38 -5 0 -5 -6 -6 -12
-1 -15 9 -855 11 -870 2z m-9671 -8615 c-3 -3 -12 -4 -19 -1 -8 3 -5 6 6 6 11
1 17 -2 13 -5z"/>
</g>
</svg>
